<?xml version="1.0" encoding="UTF-8" standalone="no"?><svg xmlns="http://www.w3.org/2000/svg" xmlns:xlink="http://www.w3.org/1999/xlink" contentScriptType="application/ecmascript" contentStyleType="text/css" height="758px" preserveAspectRatio="none" style="width:433px;height:758px;background:#FFFFFF;" version="1.1" viewBox="0 0 433 758" width="433px" zoomAndPan="magnify"><defs><filter height="300%" id="f841e0i16vo9i" width="300%" x="-1" y="-1"><feGaussianBlur result="blurOut" stdDeviation="2.0"/><feColorMatrix in="blurOut" result="blurOut2" type="matrix" values="0 0 0 0 0 0 0 0 0 0 0 0 0 0 0 0 0 0 .4 0"/><feOffset dx="4.0" dy="4.0" in="blurOut2" result="blurOut3"/><feBlend in="SourceGraphic" in2="blurOut3" mode="normal"/></filter></defs><g><ellipse cx="203" cy="20" fill="#000000" filter="url(#f841e0i16vo9i)" rx="10" ry="10" style="stroke:none;stroke-width:1.0;"/><rect fill="#F8F8F8" filter="url(#f841e0i16vo9i)" height="35.0938" rx="12.5" ry="12.5" style="stroke:#383838;stroke-width:1.5;" width="158" x="124" y="50"/><text fill="#000000" font-family="sans-serif" font-size="12" lengthAdjust="spacing" textLength="138" x="134" y="72.457">get documents in system</text><rect fill="#F8F8F8" filter="url(#f841e0i16vo9i)" height="35.0938" rx="12.5" ry="12.5" style="stroke:#383838;stroke-width:1.5;" width="144" x="131" y="105.0938"/><text fill="#000000" font-family="sans-serif" font-size="12" lengthAdjust="spacing" textLength="124" x="141" y="127.5508">get documents remote</text><rect fill="#F8F8F8" filter="url(#f841e0i16vo9i)" height="35.0938" rx="12.5" ry="12.5" style="stroke:#383838;stroke-width:1.5;" width="145" x="130.5" y="160.1875"/><text fill="#000000" font-family="sans-serif" font-size="12" lengthAdjust="spacing" textLength="125" x="140.5" y="182.6445">iterate over documents</text><polygon fill="#F8F8F8" filter="url(#f841e0i16vo9i)" points="139,270.375,267,270.375,279,282.375,267,294.375,139,294.375,127,282.375,139,270.375" style="stroke:#383838;stroke-width:1.5;"/><text fill="#000000" font-family="sans-serif" font-size="11" lengthAdjust="spacing" textLength="128" x="139" y="286.876">document exists in system</text><text fill="#000000" font-family="sans-serif" font-size="11" lengthAdjust="spacing" textLength="18" x="109" y="279.958">yes</text><text fill="#000000" font-family="sans-serif" font-size="11" lengthAdjust="spacing" textLength="12" x="279" y="279.958">no</text><rect fill="#F8F8F8" filter="url(#f841e0i16vo9i)" height="35.0938" rx="12.5" ry="12.5" style="stroke:#383838;stroke-width:1.5;" width="125" x="34.5" y="353.293"/><text fill="#000000" font-family="sans-serif" font-size="12" lengthAdjust="spacing" textLength="105" x="44.5" y="375.75">get full remote data</text><rect fill="#F8F8F8" filter="url(#f841e0i16vo9i)" height="35.0938" rx="12.5" ry="12.5" style="stroke:#383838;stroke-width:1.5;" width="72" x="61" y="423.3867"/><text fill="#000000" font-family="sans-serif" font-size="12" lengthAdjust="spacing" textLength="52" x="71" y="445.8438">map data</text><rect fill="#F8F8F8" filter="url(#f841e0i16vo9i)" height="35.0938" rx="12.5" ry="12.5" style="stroke:#383838;stroke-width:1.5;" width="172" x="11" y="493.4805"/><text fill="#000000" font-family="sans-serif" font-size="12" lengthAdjust="spacing" textLength="152" x="21" y="515.9375">update document in system</text><polygon fill="#F8F8F8" filter="url(#f841e0i16vo9i)" points="42.5,304.375,151.5,304.375,163.5,316.375,151.5,328.375,42.5,328.375,30.5,316.375,42.5,304.375" style="stroke:#383838;stroke-width:1.5;"/><text fill="#000000" font-family="sans-serif" font-size="11" lengthAdjust="spacing" textLength="12" x="101" y="339.7939">no</text><text fill="#000000" font-family="sans-serif" font-size="11" lengthAdjust="spacing" textLength="109" x="42.5" y="320.876">document is up to date</text><text fill="#000000" font-family="sans-serif" font-size="11" lengthAdjust="spacing" textLength="18" x="163.5" y="313.958">yes</text><polygon fill="#F8F8F8" filter="url(#f841e0i16vo9i)" points="97,548.5742,109,560.5742,97,572.5742,85,560.5742,97,548.5742" style="stroke:#383838;stroke-width:1.5;"/><rect fill="#F8F8F8" filter="url(#f841e0i16vo9i)" height="35.0938" rx="12.5" ry="12.5" style="stroke:#383838;stroke-width:1.5;" width="125" x="246.5" y="304.375"/><text fill="#000000" font-family="sans-serif" font-size="12" lengthAdjust="spacing" textLength="105" x="256.5" y="326.832">get full remote data</text><rect fill="#F8F8F8" filter="url(#f841e0i16vo9i)" height="35.0938" rx="12.5" ry="12.5" style="stroke:#383838;stroke-width:1.5;" width="72" x="273" y="374.4688"/><text fill="#000000" font-family="sans-serif" font-size="12" lengthAdjust="spacing" textLength="52" x="283" y="396.9258">map data</text><rect fill="#F8F8F8" filter="url(#f841e0i16vo9i)" height="35.0938" rx="12.5" ry="12.5" style="stroke:#383838;stroke-width:1.5;" width="168" x="225" y="444.5625"/><text fill="#000000" font-family="sans-serif" font-size="12" lengthAdjust="spacing" textLength="148" x="235" y="467.0195">create document in system</text><polygon fill="#F8F8F8" filter="url(#f841e0i16vo9i)" points="203,578.5742,215,590.5742,203,602.5742,191,590.5742,203,578.5742" style="stroke:#383838;stroke-width:1.5;"/><rect fill="#F8F8F8" filter="url(#f841e0i16vo9i)" height="35.0938" rx="12.5" ry="12.5" style="stroke:#383838;stroke-width:1.5;" width="90" x="158" y="622.5742"/><text fill="#000000" font-family="sans-serif" font-size="12" lengthAdjust="spacing" textLength="70" x="168" y="645.0313">log progress</text><rect fill="#F8F8F8" filter="url(#f841e0i16vo9i)" height="35.0938" rx="12.5" ry="12.5" style="stroke:#383838;stroke-width:1.5;" width="120" x="143" y="215.2813"/><text fill="#000000" font-family="sans-serif" font-size="12" lengthAdjust="spacing" textLength="100" x="153" y="237.7383">get next document</text><polygon fill="#F8F8F8" filter="url(#f841e0i16vo9i)" points="151.5,677.668,254.5,677.668,266.5,689.668,254.5,701.668,151.5,701.668,139.5,689.668,151.5,677.668" style="stroke:#383838;stroke-width:1.5;"/><text fill="#000000" font-family="sans-serif" font-size="11" lengthAdjust="spacing" textLength="103" x="151.5" y="694.1689">next document exists</text><text fill="#000000" font-family="sans-serif" font-size="11" lengthAdjust="spacing" textLength="18" x="266.5" y="687.251">yes</text><ellipse cx="203" cy="731.668" fill="#FFFFFF" filter="url(#f841e0i16vo9i)" rx="10" ry="10" style="stroke:#000000;stroke-width:1.5;"/><line style="stroke:#000000;stroke-width:2.5;" x1="196.8128" x2="209.1872" y1="725.4808" y2="737.8552"/><line style="stroke:#000000;stroke-width:2.5;" x1="209.1872" x2="196.8128" y1="725.4808" y2="737.8552"/><line style="stroke:#383838;stroke-width:1.5;" x1="203" x2="203" y1="30" y2="50"/><polygon fill="#383838" points="199,40,203,50,207,40,203,44" style="stroke:#383838;stroke-width:1.0;"/><line style="stroke:#383838;stroke-width:1.5;" x1="203" x2="203" y1="85.0938" y2="105.0938"/><polygon fill="#383838" points="199,95.0938,203,105.0938,207,95.0938,203,99.0938" style="stroke:#383838;stroke-width:1.0;"/><line style="stroke:#383838;stroke-width:1.5;" x1="203" x2="203" y1="140.1875" y2="160.1875"/><polygon fill="#383838" points="199,150.1875,203,160.1875,207,150.1875,203,154.1875" style="stroke:#383838;stroke-width:1.0;"/><line style="stroke:#383838;stroke-width:1.5;" x1="97" x2="97" y1="388.3867" y2="423.3867"/><polygon fill="#383838" points="93,413.3867,97,423.3867,101,413.3867,97,417.3867" style="stroke:#383838;stroke-width:1.0;"/><line style="stroke:#383838;stroke-width:1.5;" x1="97" x2="97" y1="458.4805" y2="493.4805"/><polygon fill="#383838" points="93,483.4805,97,493.4805,101,483.4805,97,487.4805" style="stroke:#383838;stroke-width:1.0;"/><line style="stroke:#383838;stroke-width:1.5;" x1="97" x2="97" y1="328.375" y2="353.293"/><polygon fill="#383838" points="93,343.293,97,353.293,101,343.293,97,347.293" style="stroke:#383838;stroke-width:1.0;"/><line style="stroke:#383838;stroke-width:1.5;" x1="163.5" x2="193" y1="316.375" y2="316.375"/><polygon fill="#383838" points="189,430.9336,193,440.9336,197,430.9336,193,434.9336" style="stroke:#383838;stroke-width:1.5;"/><line style="stroke:#383838;stroke-width:1.5;" x1="193" x2="193" y1="316.375" y2="560.5742"/><line style="stroke:#383838;stroke-width:1.5;" x1="193" x2="109" y1="560.5742" y2="560.5742"/><polygon fill="#383838" points="119,556.5742,109,560.5742,119,564.5742,115,560.5742" style="stroke:#383838;stroke-width:1.0;"/><line style="stroke:#383838;stroke-width:1.5;" x1="97" x2="97" y1="528.5742" y2="548.5742"/><polygon fill="#383838" points="93,538.5742,97,548.5742,101,538.5742,97,542.5742" style="stroke:#383838;stroke-width:1.0;"/><line style="stroke:#383838;stroke-width:1.5;" x1="309" x2="309" y1="339.4688" y2="374.4688"/><polygon fill="#383838" points="305,364.4688,309,374.4688,313,364.4688,309,368.4688" style="stroke:#383838;stroke-width:1.0;"/><line style="stroke:#383838;stroke-width:1.5;" x1="309" x2="309" y1="409.5625" y2="444.5625"/><polygon fill="#383838" points="305,434.5625,309,444.5625,313,434.5625,309,438.5625" style="stroke:#383838;stroke-width:1.0;"/><line style="stroke:#383838;stroke-width:1.5;" x1="127" x2="97" y1="282.375" y2="282.375"/><line style="stroke:#383838;stroke-width:1.5;" x1="97" x2="97" y1="282.375" y2="304.375"/><polygon fill="#383838" points="93,294.375,97,304.375,101,294.375,97,298.375" style="stroke:#383838;stroke-width:1.0;"/><line style="stroke:#383838;stroke-width:1.5;" x1="279" x2="309" y1="282.375" y2="282.375"/><line style="stroke:#383838;stroke-width:1.5;" x1="309" x2="309" y1="282.375" y2="304.375"/><polygon fill="#383838" points="305,294.375,309,304.375,313,294.375,309,298.375" style="stroke:#383838;stroke-width:1.0;"/><line style="stroke:#383838;stroke-width:1.5;" x1="97" x2="97" y1="572.5742" y2="590.5742"/><line style="stroke:#383838;stroke-width:1.5;" x1="97" x2="191" y1="590.5742" y2="590.5742"/><polygon fill="#383838" points="181,586.5742,191,590.5742,181,594.5742,185,590.5742" style="stroke:#383838;stroke-width:1.0;"/><line style="stroke:#383838;stroke-width:1.5;" x1="309" x2="309" y1="479.6563" y2="590.5742"/><line style="stroke:#383838;stroke-width:1.5;" x1="309" x2="215" y1="590.5742" y2="590.5742"/><polygon fill="#383838" points="225,586.5742,215,590.5742,225,594.5742,221,590.5742" style="stroke:#383838;stroke-width:1.0;"/><line style="stroke:#383838;stroke-width:1.5;" x1="203" x2="203" y1="602.5742" y2="622.5742"/><polygon fill="#383838" points="199,612.5742,203,622.5742,207,612.5742,203,616.5742" style="stroke:#383838;stroke-width:1.0;"/><line style="stroke:#383838;stroke-width:1.5;" x1="203" x2="203" y1="250.375" y2="270.375"/><polygon fill="#383838" points="199,260.375,203,270.375,207,260.375,203,264.375" style="stroke:#383838;stroke-width:1.0;"/><line style="stroke:#383838;stroke-width:1.5;" x1="266.5" x2="407" y1="689.668" y2="689.668"/><polygon fill="#383838" points="403,481.207,407,471.207,411,481.207,407,477.207" style="stroke:#383838;stroke-width:1.5;"/><line style="stroke:#383838;stroke-width:1.5;" x1="407" x2="407" y1="232.8281" y2="689.668"/><line style="stroke:#383838;stroke-width:1.5;" x1="407" x2="263" y1="232.8281" y2="232.8281"/><polygon fill="#383838" points="273,228.8281,263,232.8281,273,236.8281,269,232.8281" style="stroke:#383838;stroke-width:1.0;"/><line style="stroke:#383838;stroke-width:1.5;" x1="203" x2="203" y1="657.668" y2="677.668"/><polygon fill="#383838" points="199,667.668,203,677.668,207,667.668,203,671.668" style="stroke:#383838;stroke-width:1.0;"/><line style="stroke:#383838;stroke-width:1.5;" x1="203" x2="203" y1="195.2813" y2="215.2813"/><polygon fill="#383838" points="199,205.2813,203,215.2813,207,205.2813,203,209.2813" style="stroke:#383838;stroke-width:1.0;"/><line style="stroke:#383838;stroke-width:1.5;" x1="203" x2="203" y1="701.668" y2="721.668"/><polygon fill="#383838" points="199,711.668,203,721.668,207,711.668,203,715.668" style="stroke:#383838;stroke-width:1.0;"/><!--MD5=[805ffb699d69ed9fa4515ecd99dc5507]
@startuml
skinparam monochrome true
start
:get documents in system;
:get documents remote;
:iterate over documents;
repeat :get next document;
if(document exists in system) then (yes)
  if(document is up to date) then (yes)
  else (no)
    :get full remote data;
    :map data;
    :update document in system;
  endif
else (no)
  :get full remote data;
  :map data;
  :create document in system;
endif
:log progress;
repeat while (next document exists) is (yes)
end
@enduml

PlantUML version 1.2021.16(Wed Dec 08 18:25:22 CET 2021)
(GPL source distribution)
Java Runtime: OpenJDK Runtime Environment
JVM: OpenJDK 64-Bit Server VM
Default Encoding: Cp1252
Language: de
Country: DE
--></g></svg>